<?xml version="1.0" standalone="no"?><!DOCTYPE svg PUBLIC "-//W3C//DTD SVG 1.1//EN" "http://www.w3.org/Graphics/SVG/1.1/DTD/svg11.dtd"><svg t="1737434694977" class="icon" viewBox="0 0 1024 1024" version="1.1" xmlns="http://www.w3.org/2000/svg" p-id="4370" xmlns:xlink="http://www.w3.org/1999/xlink" width="200" height="200"><path d="M488 1h48v341h-48zM488 750h48v273h-48z" fill="#333333" p-id="4371"></path><path d="M341.673 389.827l44.63-17.664 149.998 378.986-44.63 17.664z" fill="#333333" p-id="4372"></path><path d="M342 342h341v48H342z" fill="#333333" p-id="4373"></path><path d="M513 526c-50.7 0-92-41.3-92-92s41.3-92 92-92 92 41.3 92 92-41.3 92-92 92z m0-136c-24.3 0-44 19.7-44 44s19.7 44 44 44 44-19.7 44-44-19.7-44-44-44z" fill="#333333" p-id="4374"></path></svg>