<?xml version="1.0" standalone="no"?><!DOCTYPE svg PUBLIC "-//W3C//DTD SVG 1.1//EN" "http://www.w3.org/Graphics/SVG/1.1/DTD/svg11.dtd"><svg t="1737434680231" class="icon" viewBox="0 0 1024 1024" version="1.1" xmlns="http://www.w3.org/2000/svg" p-id="4225" xmlns:xlink="http://www.w3.org/1999/xlink" width="200" height="200"><path d="M488 1h48v341h-48zM488 750h48v273h-48z" fill="#333333" p-id="4226"></path><path d="M241.355 461.963l37.358-30.14L534.645 749.06l-37.358 30.14zM342 342h341v48H342z" fill="#333333" p-id="4227"></path><path d="M513 526c-50.7 0-92-41.3-92-92s41.3-92 92-92 92 41.3 92 92-41.3 92-92 92z m0-136c-24.3 0-44 19.7-44 44s19.7 44 44 44 44-19.7 44-44-19.7-44-44-44z" fill="#333333" p-id="4228"></path></svg>